<svg width="24" height="24" viewBox="0 0 24 24" fill="none" xmlns="http://www.w3.org/2000/svg">
<path fill-rule="evenodd" clip-rule="evenodd" d="M2.68101 0.0949993H7.47268C8.53122 0.0949993 9.38934 0.95312 9.38934 2.01167V6.80333C9.38934 7.86188 8.53122 8.72 7.47268 8.72H2.68101C1.62246 8.72 0.764343 7.86188 0.764343 6.80333V2.01167C0.764343 0.95312 1.62246 0.0949993 2.68101 0.0949993ZM2.68101 10.6367H7.47268C8.53122 10.6367 9.38934 11.4948 9.38934 12.5533V21.1783C9.38934 22.2369 8.53122 23.095 7.47268 23.095H2.68101C1.62246 23.095 0.764343 22.2369 0.764343 21.1783V12.5533C0.764343 11.4948 1.62246 10.6367 2.68101 10.6367ZM13.2227 0.0949993H21.8477C22.9062 0.0949993 23.7644 0.95312 23.7644 2.01167V12.5533C23.7644 13.6119 22.9062 14.47 21.8477 14.47H13.2227C12.1641 14.47 11.306 13.6119 11.306 12.5533V2.01167C11.306 0.95312 12.1641 0.0949993 13.2227 0.0949993ZM13.2227 16.3867H21.8477C22.9062 16.3867 23.7644 17.2448 23.7644 18.3033V21.1783C23.7644 22.2369 22.9062 23.095 21.8477 23.095H13.2227C12.1641 23.095 11.306 22.2369 11.306 21.1783V18.3033C11.306 17.2448 12.1641 16.3867 13.2227 16.3867Z" fill="#CECECE"/>
</svg>
