<svg width="61" height="61" viewBox="0 0 61 61" fill="none" xmlns="http://www.w3.org/2000/svg">
<path d="M23.7463 0.627759C23.3029 0.2146 22.7165 -0.010327 22.1105 0.000364405C21.5046 0.0110558 20.9264 0.256531 20.4979 0.685075C20.0693 1.11362 19.8239 1.69177 19.8132 2.29773C19.8025 2.90368 20.0274 3.49014 20.4406 3.93353L28.6956 12.1886C28.9098 12.4184 29.168 12.6027 29.4549 12.7306C29.7418 12.8584 30.0515 12.9271 30.3656 12.9327C30.6797 12.9382 30.9916 12.8805 31.2829 12.7628C31.5741 12.6452 31.8387 12.4701 32.0608 12.248C32.2829 12.0259 32.458 11.7613 32.5756 11.4701C32.6932 11.1788 32.751 10.8669 32.7455 10.5528C32.7399 10.2387 32.6712 9.92902 32.5434 9.6421C32.4155 9.35519 32.2312 9.09696 32.0014 8.88283L23.7463 0.627759ZM7.2393 3.92729C6.8001 3.48768 6.20425 3.24054 5.58284 3.24025C4.96143 3.23996 4.36535 3.48653 3.92573 3.92573C3.48612 4.36493 3.23898 4.96078 3.23869 5.58219C3.2384 6.20361 3.48497 6.79969 3.92417 7.2393L22.0872 25.4023C22.3031 25.6256 22.5613 25.8037 22.8467 25.9261C23.1321 26.0486 23.439 26.113 23.7496 26.1155C24.0602 26.1181 24.3682 26.0587 24.6556 25.941C24.9429 25.8233 25.204 25.6495 25.4235 25.4297C25.643 25.21 25.8166 24.9488 25.9341 24.6613C26.0515 24.3738 26.1106 24.0658 26.1077 23.7552C26.1049 23.4446 26.0402 23.1377 25.9175 22.8524C25.7948 22.5671 25.6165 22.3091 25.393 22.0934L7.2393 3.92729ZM40.6962 17.746C40.5021 17.3572 40.2034 17.0302 39.8338 16.8016C39.4642 16.573 39.0382 16.452 38.6036 16.452C38.169 16.452 37.743 16.573 37.3734 16.8016C37.0037 17.0302 36.7051 17.3572 36.511 17.746L30.255 30.255L17.7492 36.511C17.3603 36.7051 17.0333 37.0037 16.8047 37.3734C16.5762 37.743 16.4551 38.169 16.4551 38.6036C16.4551 39.0382 16.5762 39.4642 16.8047 39.8338C17.0333 40.2034 17.3603 40.5021 17.7492 40.6962L30.2581 46.9522L36.5141 59.4611C36.7082 59.8499 37.0069 60.177 37.3765 60.4056C37.7461 60.6341 38.1721 60.7552 38.6067 60.7552C39.0413 60.7552 39.4673 60.6341 39.8369 60.4056C40.2065 60.177 40.5052 59.8499 40.6993 59.4611L46.9553 46.9522L59.4642 40.6962C59.8531 40.5021 60.1801 40.2034 60.4087 39.8338C60.6373 39.4642 60.7583 39.0382 60.7583 38.6036C60.7583 38.169 60.6373 37.743 60.4087 37.3734C60.1801 37.0037 59.8531 36.7051 59.4642 36.511L46.9553 30.255L40.6962 17.746ZM3.93353 20.4406C3.49014 20.0274 2.90368 19.8025 2.29773 19.8132C1.69177 19.8239 1.11362 20.0693 0.685075 20.4979C0.256531 20.9264 0.0110558 21.5046 0.000364405 22.1105C-0.010327 22.7165 0.2146 23.3029 0.627759 23.7463L8.88283 32.0014C9.32623 32.4146 9.91268 32.6395 10.5186 32.6288C11.1246 32.6181 11.7027 32.3726 12.1313 31.9441C12.5598 31.5155 12.8053 30.9374 12.816 30.3314C12.8267 29.7255 12.6018 29.139 12.1886 28.6956L3.93353 20.4406Z" fill="url(#paint0_linear_277_12060)"/>
<defs>
<linearGradient id="paint0_linear_277_12060" x1="67.9423" y1="-13.5269" x2="-3.83557" y2="-0.171461" gradientUnits="userSpaceOnUse">
<stop stop-color="#FF5614"/>
<stop offset="1" stop-color="#FF7700"/>
</linearGradient>
</defs>
</svg>
