<svg width="37" height="46" viewBox="0 0 37 46" fill="none" xmlns="http://www.w3.org/2000/svg">
<path d="M34.5968 20.7806C33.6005 18.5381 32.152 16.5253 30.3422 14.8682L28.8487 13.4979C28.7979 13.4526 28.7369 13.4205 28.6709 13.4044C28.6049 13.3882 28.5359 13.3885 28.47 13.4052C28.4042 13.4219 28.3434 13.4546 28.2931 13.5003C28.2428 13.546 28.2044 13.6033 28.1815 13.6672L27.5143 15.5816C27.0985 16.7826 26.3338 18.0092 25.2509 19.2153C25.1791 19.2922 25.0969 19.3128 25.0405 19.3179C24.984 19.323 24.8968 19.3128 24.8198 19.2409C24.7479 19.1793 24.712 19.087 24.7171 18.9946C24.907 15.9049 23.9832 12.4201 21.9611 8.62733C20.288 5.4761 17.963 3.01773 15.0582 1.30354L12.9385 0.0563944C12.6614 -0.107839 12.3073 0.107717 12.3226 0.431052L12.4356 2.89456C12.5125 4.57795 12.3175 6.06632 11.8556 7.3032C11.2911 8.81723 10.4802 10.2235 9.44343 11.486C8.72195 12.3635 7.90421 13.1571 7.00559 13.852C4.84133 15.5157 3.0815 17.6475 1.85789 20.0878C0.637298 22.5493 0.00148919 25.2594 0 28.0069C0 30.4293 0.477304 32.7748 1.42165 34.9868C2.33348 37.1165 3.64937 39.0494 5.29653 40.6785C6.9594 42.3209 8.88914 43.6142 11.0396 44.5124C13.267 45.4464 15.6279 45.9186 18.0657 45.9186C20.5035 45.9186 22.8644 45.4464 25.0918 44.5175C27.2369 43.6246 29.1876 42.3224 30.8349 40.6837C32.4977 39.0413 33.8013 37.1218 34.7097 34.9919C35.6527 32.786 36.1364 30.4111 36.1314 28.012C36.1314 25.5075 35.6182 23.0748 34.5968 20.7806Z" fill="url(#paint0_linear_54_630)"/>
<defs>
<linearGradient id="paint0_linear_54_630" x1="40.4035" y1="-10.2236" x2="-2.83201" y2="-3.89391" gradientUnits="userSpaceOnUse">
<stop stop-color="#FF5614"/>
<stop offset="1" stop-color="#FF7700"/>
</linearGradient>
</defs>
</svg>
