<svg width="47" height="46" viewBox="0 0 47 46" fill="none" xmlns="http://www.w3.org/2000/svg">
<path fill-rule="evenodd" clip-rule="evenodd" d="M32.891 7.75108L35.465 8.49049C35.6689 8.54149 35.7963 8.74546 35.7963 8.94944C35.7963 9.15342 35.6689 9.35739 35.465 9.40839L32.891 10.1478C30.5209 10.8362 28.7115 12.6465 28.0234 15.0177L27.2843 17.5929C27.2333 17.7969 27.0295 17.9244 26.8256 17.9244C26.6217 17.9244 26.4178 17.7969 26.3668 17.5929L25.6278 15.0177C24.9397 12.6465 23.1303 10.8362 20.7601 10.1478L18.1862 9.40839C17.9823 9.35739 17.8549 9.15342 17.8549 8.94944C17.8549 8.74546 17.9823 8.54149 18.1862 8.49049L20.7601 7.75108C23.1303 7.06266 24.9397 5.25238 25.6278 2.88116L26.3668 0.305964C26.4943 -0.101988 27.1569 -0.101988 27.2843 0.305964L28.0234 2.88116C28.7115 5.25238 30.5209 7.06266 32.891 7.75108ZM22.3403 28.0976L31.8207 29.449L31.7442 29.4235C32.3049 29.5 32.8401 29.7804 33.2224 30.2139C33.6301 30.6473 33.8595 31.1828 33.8595 31.7692C33.9359 35.8232 33.2224 39.8773 31.8207 43.6763C31.5913 44.3137 31.1581 44.8747 30.5974 45.2571C30.0367 45.6651 29.3741 45.869 28.686 45.869H18.3901C17.9314 45.8945 17.4726 45.7925 17.0394 45.6141C16.6316 45.4356 16.2494 45.1806 15.9181 44.8492L8.93518 37.761C8.27257 37.1236 7.8903 36.2057 7.91578 35.2878C7.94127 34.3699 8.29806 33.4775 8.96067 32.8146C9.62328 32.1517 10.5153 31.7947 11.4582 31.7947C12.4011 31.7947 13.2931 32.1517 13.9557 32.8146L15.7142 34.7014V21.1625C15.6887 20.3211 15.969 19.4797 16.5297 18.8422C17.0904 18.1793 17.8549 17.7714 18.6959 17.6439C19.1801 17.5929 19.6644 17.6439 20.1231 17.8224C20.5818 18.0008 21.0151 18.2558 21.3464 18.6128C21.6777 18.9187 21.907 19.2757 22.0854 19.6836C22.2638 20.0916 22.3403 20.525 22.3403 20.9585V28.0976ZM45.9649 24.9361L44.5122 24.5282C43.187 24.1457 42.1421 23.1259 41.7598 21.7745L41.3521 20.3212C41.2756 20.0917 40.8933 20.0917 40.8424 20.3212L40.4346 21.7745C40.0523 23.1004 39.0329 24.1457 37.6822 24.5282L36.2296 24.9361C36.2296 24.9361 36.0257 25.0636 36.0257 25.1911C36.0257 25.3186 36.1022 25.4206 36.2296 25.4461L37.6822 25.854C39.0075 26.2365 40.0523 27.2564 40.4346 28.6077L40.8424 30.061C40.8424 30.061 40.9698 30.265 41.0972 30.265C41.2246 30.265 41.3266 30.1885 41.3521 30.061L41.7598 28.6077C42.1421 27.2819 43.1615 26.2365 44.5122 25.854L45.9649 25.4461C45.9649 25.4461 46.1687 25.3186 46.1687 25.1911C46.1687 25.0636 46.0923 24.9616 45.9649 24.9361ZM12.1463 16.5476L10.4133 17.032C8.80773 17.4654 7.58445 18.6893 7.12572 20.2956L6.6415 22.0294C6.59053 22.1569 6.48859 22.2589 6.33568 22.2589C6.18277 22.2589 6.08083 22.1569 6.02986 22.0294L5.54565 20.2956C5.08692 18.7148 3.86364 17.4909 2.25809 17.032L0.525111 16.5476C0.397686 16.4966 0.295746 16.3946 0.295746 16.2416C0.295746 16.0886 0.397686 15.9866 0.525111 15.9356L2.25809 15.4512C3.86364 15.0177 5.08692 13.7939 5.54565 12.1876L6.02986 10.4538C6.10632 10.1733 6.56505 10.1733 6.6415 10.4538L7.12572 12.1876C7.58445 13.7684 8.80773 14.9922 10.4133 15.4512L12.1463 15.9356C12.2737 15.9866 12.3756 16.0886 12.3756 16.2416C12.3756 16.3946 12.2737 16.4966 12.1463 16.5476Z" fill="url(#paint0_linear_478_265)"/>
<defs>
<linearGradient id="paint0_linear_478_265" x1="51.5926" y1="-10.2135" x2="-2.60032" y2="-0.130462" gradientUnits="userSpaceOnUse">
<stop stop-color="#FF5614"/>
<stop offset="1" stop-color="#FF7700"/>
</linearGradient>
</defs>
</svg>
