<svg width="22" height="22" viewBox="0 0 22 22" fill="none" xmlns="http://www.w3.org/2000/svg">
<path fill-rule="evenodd" clip-rule="evenodd" d="M20.2432 6.36175C21.3076 7.16005 21.934 8.41291 21.934 9.74342V17.6692C21.934 20.0038 20.0415 21.8963 17.7069 21.8963H5.02567C2.69112 21.8963 0.798584 20.0038 0.798584 17.6692V9.74342C0.798584 8.41291 1.42502 7.16005 2.48942 6.36175L8.83006 1.60628C10.333 0.479058 12.3996 0.47906 13.9026 1.60628L20.2432 6.36175ZM8.19599 15.5557C7.61235 15.5557 7.13922 16.0288 7.13922 16.6125C7.13922 17.1961 7.61235 17.6692 8.19599 17.6692H14.5366C15.1203 17.6692 15.5934 17.1961 15.5934 16.6125C15.5934 16.0288 15.1203 15.5557 14.5366 15.5557H8.19599Z" fill="#CECECE"/>
</svg>
