<svg width="23" height="25" viewBox="0 0 23 25" fill="none" xmlns="http://www.w3.org/2000/svg">
<g filter="url(#filter0_dddd_538_1417)">
<path d="M6.48062 0.695312C4.87767 0.695312 4.6765 0.702321 4.04693 0.730972C3.41858 0.759745 2.98969 0.859221 2.6144 1.00518C2.22621 1.15593 1.89691 1.35759 1.56884 1.68577C1.24053 2.01384 1.03887 2.34313 0.887626 2.7312C0.741299 3.1066 0.641699 3.53562 0.613417 4.16371C0.585259 4.79327 0.577881 4.99456 0.577881 6.5975C0.577881 8.20043 0.585013 8.40098 0.61354 9.03055C0.642437 9.65889 0.741914 10.0878 0.887749 10.4631C1.03863 10.8513 1.24029 11.1805 1.56847 11.5086C1.89642 11.8369 2.22571 12.0391 2.61366 12.1898C2.98919 12.3358 3.41821 12.4352 4.04643 12.464C4.67601 12.4927 4.87705 12.4997 6.47988 12.4997C8.08296 12.4997 8.28351 12.4927 8.91308 12.464C9.54143 12.4352 9.97081 12.3358 10.3463 12.1898C10.7344 12.0391 11.0632 11.8369 11.3912 11.5086C11.7195 11.1805 11.9211 10.8513 12.0724 10.4632C12.2175 10.0878 12.3171 9.65876 12.3466 9.03067C12.3749 8.40111 12.3823 8.20043 12.3823 6.5975C12.3823 4.99456 12.3749 4.7934 12.3466 4.16383C12.3171 3.53549 12.2175 3.1066 12.0724 2.73132C11.9211 2.34313 11.7195 2.01384 11.3912 1.68577C11.0629 1.35746 10.7345 1.15581 10.346 1.00518C9.96971 0.859221 9.54056 0.759745 8.91222 0.730972C8.28265 0.702321 8.08222 0.695312 6.47877 0.695312H6.48062ZM5.95114 1.75894C6.10829 1.75869 6.28363 1.75894 6.48062 1.75894C8.05652 1.75894 8.2433 1.76459 8.86562 1.79287C9.44109 1.81919 9.75341 1.91534 9.96147 1.99613C10.2369 2.10311 10.4333 2.23099 10.6397 2.43756C10.8463 2.64414 10.9742 2.84088 11.0814 3.11631C11.1622 3.32412 11.2585 3.63644 11.2847 4.21191C11.313 4.8341 11.3191 5.021 11.3191 6.59614C11.3191 8.17129 11.313 8.35819 11.2847 8.98038C11.2584 9.55584 11.1622 9.86817 11.0814 10.076C10.9744 10.3514 10.8463 10.5475 10.6397 10.754C10.4332 10.9606 10.237 11.0884 9.96147 11.1954C9.75366 11.2766 9.44109 11.3725 8.86562 11.3988C8.24342 11.4271 8.05652 11.4332 6.48062 11.4332C4.9046 11.4332 4.71782 11.4271 4.09562 11.3988C3.52015 11.3722 3.20782 11.2761 2.99965 11.1953C2.72421 11.0883 2.52747 10.9604 2.32089 10.7539C2.11431 10.5473 1.98643 10.351 1.8792 10.0755C1.79842 9.86768 1.70214 9.55535 1.67594 8.97989C1.64766 8.3577 1.64201 8.1708 1.64201 6.59467C1.64201 5.01854 1.64766 4.83262 1.67594 4.21043C1.70226 3.63497 1.79842 3.32265 1.8792 3.11459C1.98618 2.83916 2.11431 2.64242 2.32089 2.43584C2.52747 2.22927 2.72421 2.10139 2.99965 1.99416C3.2077 1.91301 3.52015 1.8171 4.09562 1.79066C4.6401 1.76607 4.85111 1.75869 5.95114 1.75746V1.75894ZM9.63119 2.73894C9.24017 2.73894 8.92292 3.05582 8.92292 3.44696C8.92292 3.83798 9.24017 4.15522 9.63119 4.15522C10.0222 4.15522 10.3395 3.83798 10.3395 3.44696C10.3395 3.05594 10.0222 2.7387 9.63119 2.7387V2.73894ZM6.48062 3.56648C4.80672 3.56648 3.44957 4.92361 3.44957 6.5975C3.44957 8.27138 4.80672 9.6279 6.48062 9.6279C8.15452 9.6279 9.51118 8.27138 9.51118 6.5975C9.51118 4.92361 8.15452 3.56648 6.48062 3.56648ZM6.48062 4.6301C7.56712 4.6301 8.44803 5.51088 8.44803 6.5975C8.44803 7.68399 7.56712 8.56489 6.48062 8.56489C5.39399 8.56489 4.5132 7.68399 4.5132 6.5975C4.5132 5.51088 5.39399 4.6301 6.48062 4.6301Z" fill="url(#paint0_linear_538_1417)"/>
</g>
<defs>
<filter id="filter0_dddd_538_1417" x="-0.00774914" y="0.109683" width="22.3458" height="24.6881" filterUnits="userSpaceOnUse" color-interpolation-filters="sRGB">
<feFlood flood-opacity="0" result="BackgroundImageFix"/>
<feColorMatrix in="SourceAlpha" type="matrix" values="0 0 0 0 0 0 0 0 0 0 0 0 0 0 0 0 0 0 127 0" result="hardAlpha"/>
<feOffset dx="0.58563" dy="0.58563"/>
<feGaussianBlur stdDeviation="0.58563"/>
<feColorMatrix type="matrix" values="0 0 0 0 0 0 0 0 0 0 0 0 0 0 0 0 0 0 0.12 0"/>
<feBlend mode="normal" in2="BackgroundImageFix" result="effect1_dropShadow_538_1417"/>
<feColorMatrix in="SourceAlpha" type="matrix" values="0 0 0 0 0 0 0 0 0 0 0 0 0 0 0 0 0 0 127 0" result="hardAlpha"/>
<feOffset dx="1.75689" dy="2.34252"/>
<feGaussianBlur stdDeviation="1.17126"/>
<feColorMatrix type="matrix" values="0 0 0 0 0 0 0 0 0 0 0 0 0 0 0 0 0 0 0.1 0"/>
<feBlend mode="normal" in2="effect1_dropShadow_538_1417" result="effect2_dropShadow_538_1417"/>
<feColorMatrix in="SourceAlpha" type="matrix" values="0 0 0 0 0 0 0 0 0 0 0 0 0 0 0 0 0 0 127 0" result="hardAlpha"/>
<feOffset dx="3.51378" dy="4.68504"/>
<feGaussianBlur stdDeviation="1.75689"/>
<feColorMatrix type="matrix" values="0 0 0 0 0 0 0 0 0 0 0 0 0 0 0 0 0 0 0.07 0"/>
<feBlend mode="normal" in2="effect2_dropShadow_538_1417" result="effect3_dropShadow_538_1417"/>
<feColorMatrix in="SourceAlpha" type="matrix" values="0 0 0 0 0 0 0 0 0 0 0 0 0 0 0 0 0 0 127 0" result="hardAlpha"/>
<feOffset dx="5.8563" dy="8.19882"/>
<feGaussianBlur stdDeviation="2.0497"/>
<feColorMatrix type="matrix" values="0 0 0 0 0 0 0 0 0 0 0 0 0 0 0 0 0 0 0.02 0"/>
<feBlend mode="normal" in2="effect3_dropShadow_538_1417" result="effect4_dropShadow_538_1417"/>
<feBlend mode="normal" in="SourceGraphic" in2="effect4_dropShadow_538_1417" result="shape"/>
</filter>
<linearGradient id="paint0_linear_538_1417" x1="3.27837" y1="2.12842" x2="9.54529" y2="11.6941" gradientUnits="userSpaceOnUse">
<stop offset="0.141556" stop-color="white"/>
<stop offset="1" stop-color="white" stop-opacity="0.7"/>
</linearGradient>
</defs>
</svg>
