<svg width="48" height="48" viewBox="0 0 48 48" fill="none" xmlns="http://www.w3.org/2000/svg">
<g clip-path="url(#clip0_702_5378)">
<path d="M22.7914 9.55078C22.3144 10.526 22.3144 11.7556 22.7914 12.7309H7.14536C5.69312 12.7309 4.11368 14.3103 4.11368 15.7625V29.4263C10.7707 27.6031 18 29.4581 23.2472 33.8042C23.4486 33.8254 24.763 33.041 25.1128 32.8926C27.9961 31.6312 31.261 31.345 34.3245 32.1188V24.264C35.2997 24.741 36.5293 24.741 37.5046 24.264V42.401C37.5046 44.6695 34.2821 47.6694 31.9924 47.7118H6.44574C3.60486 47.309 1.3258 45.0405 0.933594 42.1996V15.0735C0.965395 12.7839 3.98647 9.56138 6.24433 9.56138H22.7914V9.55078Z" fill="url(#paint0_linear_702_5378)"/>
<path d="M35.4916 0.0423318C36.2336 -0.0954718 36.9968 0.116534 37.3466 0.826752C38.2265 2.597 37.8873 5.16227 39.2123 6.91131C41.0673 9.35998 43.8022 8.62856 46.1767 9.68859C47.3427 10.208 47.3745 12.0312 46.2403 12.5825C44.47 13.4623 41.9048 13.1231 40.1557 14.4481C37.7071 16.3032 38.4385 19.038 37.3784 21.4125C36.859 22.5785 35.0358 22.6103 34.4846 21.4761C33.6047 19.7058 33.944 17.1406 32.6189 15.3915C30.7639 12.9429 28.029 13.6743 25.6545 12.6143C24.4885 12.0948 24.4567 10.2716 25.5909 9.72039C27.3612 8.84056 29.9264 9.17977 31.6755 7.85474C34.1242 5.99969 33.3927 3.26482 34.4528 0.890354C34.633 0.476943 35.0464 0.127134 35.4916 0.0423318Z" fill="url(#paint1_linear_702_5378)"/>
<path d="M25.7491 16.7378C32.4803 15.8262 32.6181 26.1297 25.9187 25.4513C20.9684 24.953 20.8836 17.395 25.7491 16.7378Z" fill="url(#paint2_linear_702_5378)"/>
</g>
<defs>
<linearGradient id="paint0_linear_702_5378" x1="41.8286" y1="1.05436" x2="-1.4935" y2="8.77891" gradientUnits="userSpaceOnUse">
<stop stop-color="#FF5614"/>
<stop offset="1" stop-color="#FF7700"/>
</linearGradient>
<linearGradient id="paint1_linear_702_5378" x1="49.7095" y1="-4.96335" x2="23.3517" y2="-0.0577307" gradientUnits="userSpaceOnUse">
<stop stop-color="#FF5614"/>
<stop offset="1" stop-color="#FF7700"/>
</linearGradient>
<linearGradient id="paint2_linear_702_5378" x1="31.9019" y1="14.7208" x2="21.5954" y2="16.6201" gradientUnits="userSpaceOnUse">
<stop stop-color="#FF5614"/>
<stop offset="1" stop-color="#FF7700"/>
</linearGradient>
<clipPath id="clip0_702_5378">
<rect width="46.1324" height="47.7119" fill="white" transform="translate(0.933594)"/>
</clipPath>
</defs>
</svg>
