<svg width="8" height="9" viewBox="0 0 8 9" fill="none" xmlns="http://www.w3.org/2000/svg">
<path fill-rule="evenodd" clip-rule="evenodd" d="M2.06796 0.3042H2.05366C1.85871 0.304192 1.69057 0.304186 1.55286 0.317281C1.4071 0.331141 1.26311 0.361872 1.12895 0.444088C1.00122 0.52236 0.893826 0.629757 0.815548 0.757488C0.733332 0.891655 0.7026 1.03564 0.688741 1.1814C0.675647 1.3191 0.675653 1.48724 0.675659 1.68218V1.6965V7.13912V7.15342C0.675653 7.34841 0.675647 7.5165 0.688741 7.65421C0.7026 7.79996 0.733332 7.94393 0.815548 8.0781C0.893826 8.20588 1.00122 8.31327 1.12895 8.39156C1.26311 8.47377 1.4071 8.50446 1.55286 8.51832C1.69057 8.53142 1.85871 8.53142 2.05366 8.53142H2.06796H6.24485H6.25916C6.45408 8.53142 6.62223 8.53142 6.75994 8.51832C6.90569 8.50446 7.04967 8.47377 7.18383 8.39156C7.31161 8.31327 7.41901 8.20588 7.49729 8.0781C7.5795 7.94393 7.61019 7.79996 7.62405 7.65421C7.63715 7.5165 7.63715 7.34835 7.63715 7.15342V7.13912V1.6965V1.6822C7.63715 1.48725 7.63715 1.31911 7.62405 1.1814C7.61019 1.03564 7.5795 0.891655 7.49729 0.757488C7.41901 0.629757 7.31161 0.52236 7.18383 0.444088C7.04967 0.361872 6.90569 0.331141 6.75994 0.317281C6.62223 0.304186 6.45408 0.304192 6.25916 0.3042H6.24485H2.06796ZM1.45962 0.983692C1.47764 0.972649 1.51333 0.956757 1.61277 0.947303C1.71692 0.937398 1.85467 0.937063 2.06796 0.937063H6.24485C6.45813 0.937063 6.5959 0.937398 6.70007 0.947303C6.7995 0.956757 6.83519 0.972649 6.85323 0.983692C6.89575 1.00978 6.93157 1.04558 6.95765 1.08816C6.96872 1.10618 6.98461 1.14187 6.99404 1.24131C7.00397 1.34546 7.00429 1.48321 7.00429 1.6965V7.13912C7.00429 7.3524 7.00397 7.49017 6.99404 7.59434C6.98461 7.69376 6.96872 7.72946 6.95765 7.74749C6.93157 7.79002 6.89575 7.82584 6.85323 7.85192C6.83519 7.86299 6.7995 7.87888 6.70007 7.88831C6.5959 7.89824 6.45813 7.89856 6.24485 7.89856H2.06796C1.85467 7.89856 1.71692 7.89824 1.61277 7.88831C1.51333 7.87888 1.47764 7.86299 1.45962 7.85192C1.41704 7.82584 1.38124 7.79002 1.35515 7.74749C1.34411 7.72946 1.32822 7.69376 1.31876 7.59434C1.30886 7.49017 1.30852 7.3524 1.30852 7.13912V1.6965C1.30852 1.48321 1.30886 1.34546 1.31876 1.24131C1.32822 1.14187 1.34411 1.10618 1.35515 1.08816C1.38124 1.04558 1.41704 1.00978 1.45962 0.983692ZM2.57425 5.99997C2.39949 5.99997 2.25782 6.14167 2.25782 6.3164C2.25782 6.49113 2.39949 6.63283 2.57425 6.63283H4.47284C4.6476 6.63283 4.78927 6.49113 4.78927 6.3164C4.78927 6.14167 4.6476 5.99997 4.47284 5.99997H2.57425ZM2.25782 4.41781C2.25782 4.24305 2.39949 4.10138 2.57425 4.10138H5.73856C5.9133 4.10138 6.055 4.24305 6.055 4.41781C6.055 4.59257 5.9133 4.73424 5.73856 4.73424H2.57425C2.39949 4.73424 2.25782 4.59257 2.25782 4.41781ZM2.57425 2.20279C2.39949 2.20279 2.25782 2.34446 2.25782 2.51922C2.25782 2.69398 2.39949 2.83565 2.57425 2.83565H5.73856C5.9133 2.83565 6.055 2.69398 6.055 2.51922C6.055 2.34446 5.9133 2.20279 5.73856 2.20279H2.57425Z" fill="#A1A1AA"/>
</svg>
