<svg width="57" height="58" viewBox="0 0 57 58" fill="none" xmlns="http://www.w3.org/2000/svg">
<path fill-rule="evenodd" clip-rule="evenodd" d="M10.3893 17.4096L7.9758 16.73C7.78834 16.6832 7.64774 16.4957 7.64774 16.3082C7.64774 16.1208 7.78834 15.9333 7.9758 15.8865L10.3893 15.2069C12.592 14.5742 14.3025 12.8637 14.9352 10.661L15.6148 8.2475C15.7085 7.87258 16.3412 7.87258 16.4583 8.2475L17.1379 10.661C17.7705 12.8871 19.4811 14.5742 21.6837 15.2069L24.0973 15.8865C24.2847 15.9333 24.4253 16.1208 24.4253 16.3082C24.4253 16.4957 24.2847 16.6832 24.0973 16.73L21.6837 17.4096C19.4811 18.0422 17.7705 19.7528 17.1379 21.9554L16.4583 24.369C16.4115 24.5564 16.224 24.697 16.0365 24.697C15.8491 24.697 15.6616 24.5564 15.6148 24.369L14.9352 21.9554C14.3025 19.7294 12.592 18.0422 10.3893 17.4096ZM42.5386 9.67709L48.1155 15.254C48.8419 15.9804 48.8419 17.1754 48.1155 17.9019L16.4114 49.6059C15.685 50.3323 14.49 50.3323 13.7636 49.6059L8.18668 44.029C7.46028 43.3026 7.46028 42.1075 8.18668 41.3811L39.8907 9.67709C40.6171 8.95068 41.8122 8.95068 42.5386 9.67709ZM31.0333 24.0177L33.7748 26.7593L43.9679 16.5662L41.2263 13.8246L31.0333 24.0177ZM49.5448 36.2959L47.3422 35.6632C45.327 35.0774 43.7805 33.5309 43.1947 31.5157L42.562 29.313C42.4682 28.9616 41.8824 28.9616 41.7887 29.313L41.156 31.5157C40.5702 33.5309 39.0237 35.1008 37.0085 35.6632L34.8059 36.2959C34.6418 36.3428 34.5247 36.5068 34.5247 36.6942C34.5247 36.8817 34.6418 37.0223 34.8059 37.0926L37.0085 37.7253C39.0237 38.3111 40.5702 39.8576 41.156 41.8728L41.7887 44.0754C41.8356 44.2395 41.9996 44.3566 42.1871 44.3566C42.3745 44.3566 42.5151 44.2395 42.5854 44.0754L43.2181 41.8728C43.8039 39.8576 45.3504 38.3111 47.3656 37.7253L49.5683 37.0926C49.7323 37.0457 49.8494 36.8817 49.8494 36.6942C49.8494 36.5068 49.7323 36.3662 49.5683 36.2959H49.5448ZM33.9857 42.2012C34.3606 43.4666 35.3214 44.4273 36.5633 44.7788L37.9224 45.1771C38.0395 45.2006 38.1098 45.2943 38.1098 45.4115C38.1098 45.5286 37.9224 45.6458 37.9224 45.6458L36.5633 46.0441C35.2979 46.4191 34.3372 47.3798 33.9857 48.6217L33.5874 49.9808C33.5639 50.0979 33.4702 50.1682 33.3531 50.1682C33.2359 50.1682 33.1187 49.9808 33.1187 49.9808L32.7204 48.6217C32.3455 47.3564 31.3847 46.3956 30.1428 46.0441L28.7837 45.6458C28.6666 45.6224 28.5963 45.5286 28.5963 45.4115C28.5963 45.2943 28.7837 45.1771 28.7837 45.1771L30.1428 44.7788C31.4082 44.4039 32.3689 43.4431 32.7204 42.2012L33.1187 40.8421C33.1656 40.6313 33.5171 40.6313 33.5874 40.8421L33.9857 42.2012Z" fill="url(#paint0_linear_153_6372)"/>
<defs>
<linearGradient id="paint0_linear_153_6372" x1="54.84" y1="-1.42976" x2="4.97767" y2="7.84878" gradientUnits="userSpaceOnUse">
<stop stop-color="#FF5614"/>
<stop offset="1" stop-color="#FF7700"/>
</linearGradient>
</defs>
</svg>
