<svg width="29" height="28" viewBox="0 0 29 28" fill="none" xmlns="http://www.w3.org/2000/svg">
<path fill-rule="evenodd" clip-rule="evenodd" d="M14.6221 0C15.1375 0 15.5554 0.417868 15.5554 0.933333V4.66667C15.5554 5.18213 15.1375 5.6 14.6221 5.6C14.1066 5.6 13.6887 5.18213 13.6887 4.66667V0.933333C13.6887 0.417868 14.1066 0 14.6221 0ZM4.72258 4.10051C5.08706 3.73602 5.67801 3.73602 6.04252 4.10051L8.68237 6.74037C9.04686 7.10485 9.04686 7.69582 8.68237 8.0603C8.31789 8.42479 7.72692 8.42479 7.36244 8.0603L4.72258 5.42045C4.35809 5.05594 4.35809 4.46499 4.72258 4.10051ZM1.5554 13.0667C1.03994 13.0667 0.62207 13.4845 0.62207 14C0.62207 14.5155 1.03994 14.9333 1.5554 14.9333H5.28874C5.8042 14.9333 6.22207 14.5155 6.22207 14C6.22207 13.4845 5.8042 13.0667 5.28874 13.0667H1.5554ZM4.72258 23.8995C4.35809 23.5349 4.35809 22.9441 4.72258 22.5796L7.36244 19.9397C7.72692 19.5752 8.31789 19.5752 8.68237 19.9397C9.04686 20.3041 9.04686 20.8951 8.68237 21.2597L6.04252 23.8995C5.67801 24.2641 5.08706 24.2641 4.72258 23.8995ZM23.9554 13.0667C23.44 13.0667 23.0221 13.4845 23.0221 14C23.0221 14.5155 23.44 14.9333 23.9554 14.9333H27.6887C28.2041 14.9333 28.6221 14.5155 28.6221 14C28.6221 13.4845 28.2041 13.0667 27.6887 13.0667H23.9554ZM20.5618 8.0603C20.1972 7.69582 20.1972 7.10485 20.5618 6.74037L23.2016 4.10051C23.5662 3.73602 24.157 3.73602 24.5216 4.10051C24.8861 4.46499 24.8861 5.05594 24.5216 5.42045L21.8817 8.0603C21.5172 8.42479 20.9262 8.42479 20.5618 8.0603ZM15.5554 23.3333C15.5554 22.8179 15.1375 22.4 14.6221 22.4C14.1066 22.4 13.6887 22.8179 13.6887 23.3333V27.0667C13.6887 27.5821 14.1066 28 14.6221 28C15.1375 28 15.5554 27.5821 15.5554 27.0667V23.3333ZM20.5618 19.9397C20.9262 19.5752 21.5172 19.5752 21.8817 19.9397L24.5216 22.5796C24.8861 22.9441 24.8861 23.5349 24.5216 23.8995C24.157 24.2641 23.5662 24.2641 23.2016 23.8995L20.5618 21.2597C20.1972 20.8951 20.1972 20.3041 20.5618 19.9397ZM10.8887 14C10.8887 11.9381 12.5602 10.2667 14.6221 10.2667C16.6839 10.2667 18.3554 11.9381 18.3554 14C18.3554 16.0619 16.6839 17.7333 14.6221 17.7333C12.5602 17.7333 10.8887 16.0619 10.8887 14ZM14.6221 8.4C11.5293 8.4 9.02207 10.9072 9.02207 14C9.02207 17.0928 11.5293 19.6 14.6221 19.6C17.7149 19.6 20.2221 17.0928 20.2221 14C20.2221 10.9072 17.7149 8.4 14.6221 8.4Z" fill="#A3A3A3"/>
</svg>
