<svg width="15" height="15" viewBox="0 0 15 15" fill="none" xmlns="http://www.w3.org/2000/svg">
<path fill-rule="evenodd" clip-rule="evenodd" d="M7.70657 1.44683C7.43063 0.831526 7.95945 0.171742 8.61017 0.286236C10.4368 0.608638 12.0762 1.60408 13.2048 3.07609C14.3334 4.54809 14.8691 6.3897 14.7063 8.2374C14.5435 10.0851 13.694 11.8046 12.3254 13.0566C10.9567 14.3086 9.16853 15.002 7.31367 15C3.66138 15 0.626869 12.3592 0.0132125 8.8832C-0.102106 8.23247 0.558502 7.70366 1.17381 7.9796C2.08803 8.39001 3.10541 8.5128 4.09102 8.33169C5.07664 8.15059 5.98391 7.67414 6.69251 6.96553C7.40111 6.25693 7.87756 5.34966 8.05867 4.36405C8.23978 3.37843 8.11698 2.36105 7.70657 1.44683ZM9.68675 2.32984C9.86982 3.37244 9.79902 4.4438 9.48035 5.45324C9.16167 6.46269 8.6045 7.38051 7.85599 8.12902C7.10748 8.87753 6.18967 9.4347 5.18022 9.75337C4.17078 10.072 3.09941 10.1428 2.05681 9.95977C2.59994 11.1608 3.5381 12.1396 4.71508 12.7332C5.89206 13.3267 7.23684 13.4991 8.5255 13.2218C9.81416 12.9445 10.9689 12.2341 11.7976 11.2089C12.6262 10.1837 13.0786 8.90568 13.0796 7.58752C13.0798 6.47751 12.7598 5.39101 12.1578 4.4584C11.5558 3.5258 10.6984 2.78671 9.68675 2.32984ZM2.01316 4.05796L2.06587 4.17328C2.29062 4.63762 2.64436 5.02739 3.08479 5.29598L3.16716 5.34458C3.17572 5.34948 3.18283 5.35656 3.18777 5.36509C3.19272 5.37363 3.19532 5.38332 3.19532 5.39318C3.19532 5.40304 3.19272 5.41273 3.18777 5.42126C3.18283 5.4298 3.17572 5.43687 3.16716 5.44178L3.08479 5.48955C2.64424 5.75837 2.29049 6.14844 2.06587 6.61308L2.01316 6.7284C2.00859 6.73879 2.00109 6.74763 1.99159 6.75384C1.98208 6.76005 1.97097 6.76335 1.95962 6.76335C1.94826 6.76335 1.93715 6.76005 1.92765 6.75384C1.91814 6.74763 1.91064 6.73879 1.90608 6.7284L1.85336 6.61308C1.62874 6.14844 1.27499 5.75837 0.834442 5.48955L0.752072 5.44178C0.743514 5.43687 0.736403 5.4298 0.731458 5.42126C0.726512 5.41273 0.723908 5.40304 0.723908 5.39318C0.723908 5.38332 0.726512 5.37363 0.731458 5.36509C0.736403 5.35656 0.743514 5.34948 0.752072 5.34458L0.834442 5.29598C1.27469 5.02705 1.62814 4.63699 1.85254 4.17245L1.90525 4.05714C1.90982 4.04674 1.91732 4.0379 1.92682 4.03169C1.93633 4.02549 1.94744 4.02218 1.95879 4.02218C1.97015 4.02218 1.98126 4.02549 1.99076 4.03169C2.00027 4.0379 2.00777 4.04674 2.01233 4.05714L2.01316 4.05796ZM4.34588 0.0555998C4.37882 -0.0185333 4.48261 -0.0185333 4.51556 0.0555998L4.59958 0.238461C4.95722 0.978427 5.52061 1.59959 6.22227 2.02754L6.35159 2.10332C6.36549 2.11101 6.37708 2.12229 6.38515 2.13598C6.39322 2.14967 6.39748 2.16527 6.39748 2.18116C6.39748 2.19705 6.39322 2.21265 6.38515 2.22634C6.37708 2.24003 6.36549 2.25131 6.35159 2.259L6.22144 2.33478C5.46161 2.7985 4.86553 3.48789 4.51638 4.30672C4.50912 4.32328 4.49719 4.33738 4.48205 4.34727C4.46691 4.35717 4.44922 4.36244 4.43113 4.36244C4.41304 4.36244 4.39535 4.35717 4.38021 4.34727C4.36507 4.33738 4.35314 4.32328 4.34588 4.30672L4.26186 4.12386C3.90422 3.38389 3.34082 2.76273 2.63917 2.33478L2.50902 2.259C2.49512 2.25131 2.48353 2.24003 2.47546 2.22634C2.46739 2.21265 2.46313 2.19705 2.46313 2.18116C2.46313 2.16527 2.46739 2.14967 2.47546 2.13598C2.48353 2.12229 2.49512 2.11101 2.50902 2.10332L2.63917 2.02754C3.34082 1.59959 3.90422 0.978427 4.26186 0.238461L4.34588 0.0555998Z" fill="#CECECE"/>
</svg>
