<svg width="15" height="15" viewBox="0 0 15 15" fill="none" xmlns="http://www.w3.org/2000/svg">
<path d="M9.20925 0.69072C9.67203 0.384164 10.4561 0.1653 11.0478 0.757043L14.4723 4.18222C15.0662 4.7747 14.8466 5.55878 14.5394 6.02082C14.373 6.27135 14.1564 6.48463 13.9034 6.6472C13.6573 6.80416 13.3463 6.92281 13.011 6.90512C12.8488 6.89383 12.687 6.87638 12.5261 6.8528L12.476 6.84543C12.3031 6.82046 12.1293 6.80251 11.955 6.79164C11.5836 6.77321 11.4406 6.83585 11.3949 6.88007L9.56002 8.71572C9.50107 8.77467 9.42737 8.90584 9.37137 9.15787C9.31757 9.40105 9.29399 9.70024 9.2881 10.0318C9.28294 10.3502 9.29399 10.6759 9.30578 10.9898L9.30652 11.0245C9.31757 11.3362 9.32863 11.6545 9.31315 11.9044C9.26525 12.6641 8.67351 13.2234 8.09135 13.4821C7.50918 13.74 6.67868 13.8041 6.10168 13.2264L4.44362 11.5683L1.41859 14.5934C1.36799 14.6477 1.30697 14.6912 1.23917 14.7214C1.17138 14.7516 1.09819 14.7679 1.02398 14.7692C0.949775 14.7705 0.876062 14.7568 0.807243 14.729C0.738423 14.7012 0.675908 14.6599 0.623426 14.6074C0.570944 14.5549 0.52957 14.4924 0.501773 14.4236C0.473976 14.3547 0.460325 14.281 0.461634 14.2068C0.462943 14.1326 0.479186 14.0594 0.509394 13.9916C0.539601 13.9238 0.583155 13.8628 0.637456 13.8122L3.66175 10.7872L2.0037 9.12913C1.42669 8.55139 1.49007 7.72162 1.74872 7.13946C2.00664 6.5573 2.5667 5.96556 3.32572 5.91766C3.57627 5.90218 3.89462 5.91323 4.20633 5.92429L4.24097 5.92502C4.55489 5.93608 4.88061 5.94787 5.19896 5.94271C5.53057 5.93682 5.82976 5.91323 6.07294 5.85944C6.32496 5.80343 6.45613 5.72901 6.51509 5.67005L8.35 3.83514C8.39496 3.79018 8.45759 3.64648 8.43843 3.27508C8.42756 3.10076 8.40961 2.92695 8.38464 2.75408L8.37801 2.70397C8.35433 2.54307 8.33688 2.38132 8.32569 2.21908C8.30726 1.88379 8.42591 1.57281 8.58213 1.32668C8.74131 1.07613 8.96164 0.855052 9.20925 0.69072Z" fill="white"/>
</svg>
