<svg width="15" height="15" viewBox="0 0 15 15" fill="none" xmlns="http://www.w3.org/2000/svg">
<path d="M7.08737 0.353638C3.17344 0.353638 0.00012207 3.52696 0.00012207 7.44089C0.00012207 11.3548 3.17344 14.5281 7.08737 14.5281C11.0013 14.5281 14.1746 11.3548 14.1746 7.44089C14.1746 3.52696 11.0018 0.353638 7.08737 0.353638ZM9.09015 9.268C8.28286 10.0016 8.20695 11.6189 6.8293 11.3841C6.04966 11.2513 5.7661 9.99125 5.26893 9.44312C4.71158 8.8283 3.43043 8.54203 3.18375 7.828C2.72453 6.49859 4.38574 6.25896 5.09381 5.61486C5.71676 5.04829 6.03014 3.63485 6.82876 3.49877C8.14786 3.27431 8.25195 4.69479 8.91448 5.43974C9.55425 6.15865 11.0512 6.34353 11.0691 7.42462C11.0864 8.48673 9.7337 8.683 9.08961 9.268H9.09015Z" fill="url(#paint0_linear_478_57)"/>
<defs>
<linearGradient id="paint0_linear_478_57" x1="7.08737" y1="0.353638" x2="7.08737" y2="14.5281" gradientUnits="userSpaceOnUse">
<stop stop-color="#FA7846"/>
<stop offset="1" stop-color="#FF5614"/>
</linearGradient>
</defs>
</svg>
