<svg width="45" height="45" viewBox="0 0 45 45" fill="none" xmlns="http://www.w3.org/2000/svg">
<path fill-rule="evenodd" clip-rule="evenodd" d="M43.9636 13.3304L40.0166 12.2034C36.3883 11.1743 33.618 8.38107 32.5639 4.75479L31.4362 0.809996C31.2645 0.197449 30.2349 0.197449 30.0388 0.809996L28.9111 4.75479C27.8814 8.38107 25.0866 11.1743 21.4583 12.2034L17.5114 13.3304C17.1927 13.4285 16.9965 13.698 16.9965 14.0165C16.9965 14.335 17.2172 14.629 17.5114 14.7025L21.4583 15.8296C25.0866 16.8587 27.8569 19.6519 28.9111 23.2782L30.0388 27.223C30.1368 27.5415 30.4065 27.7375 30.7252 27.7375C31.0439 27.7375 31.3381 27.517 31.4116 27.223L32.5393 23.2782C33.569 19.6519 36.3638 16.8587 39.9921 15.8296L43.939 14.7025C44.2577 14.6045 44.4539 14.335 44.4539 14.0165C44.4539 13.698 44.2332 13.4039 43.939 13.3304H43.9636ZM24.7435 33.5449L21.7526 32.6873C19.0069 31.9032 16.8985 29.7961 16.114 27.0519L15.256 24.0626C15.1334 23.5971 14.3489 23.5971 14.2018 24.0626L13.3438 27.0519C12.5593 29.7961 10.451 31.9032 7.70522 32.6873L4.71433 33.5449C4.46918 33.6184 4.32209 33.8389 4.32209 34.0594C4.32209 34.2799 4.4937 34.5249 4.71433 34.5739L7.70522 35.4315C10.451 36.2156 12.5593 38.3227 13.3438 41.0669L14.2018 44.0561C14.2754 44.3012 14.4715 44.4482 14.7167 44.4482C14.9618 44.4482 15.1824 44.2767 15.2315 44.0561L16.0895 41.0669C16.874 38.3227 18.9823 36.2156 21.7281 35.4315L24.719 34.5739C24.9641 34.5004 25.1112 34.3044 25.1112 34.0594C25.1112 33.8144 24.9396 33.5939 24.719 33.5449H24.7435ZM8.0239 18.6225L7.36198 16.2948H7.3865C6.77361 14.1632 5.13107 12.5215 2.99823 11.909L0.669257 11.2474C0.473133 11.1984 0.350555 11.0269 0.350555 10.8309C0.350555 10.6349 0.497648 10.4634 0.669257 10.4144L2.99823 9.75284C5.13107 9.14029 6.77361 7.49867 7.3865 5.36701L8.04842 3.03933C8.14648 2.6718 8.75937 2.6718 8.85743 3.03933L9.51935 5.36701C10.1322 7.49867 11.7748 9.14029 13.9076 9.75284L16.2366 10.4144C16.4327 10.4634 16.5553 10.6349 16.5553 10.8309C16.5553 11.0269 16.4082 11.1984 16.2366 11.2474L13.9076 11.909C11.7748 12.5215 10.1322 14.1632 9.51935 16.2948L8.85743 18.6225C8.8084 18.8185 8.63679 18.941 8.44066 18.941C8.24454 18.941 8.07293 18.794 8.0239 18.6225Z" fill="url(#paint0_radial_478_506)"/>
<defs>
<radialGradient id="paint0_radial_478_506" cx="0" cy="0" r="1" gradientUnits="userSpaceOnUse" gradientTransform="translate(22.4022 22.3994) rotate(90) scale(22.0488 22.0517)">
<stop stop-color="#F35112"/>
<stop offset="1" stop-color="#F4732D"/>
</radialGradient>
</defs>
</svg>
