<svg width="20" height="20" viewBox="0 0 20 20" fill="none" xmlns="http://www.w3.org/2000/svg">
<path d="M19.5927 7.04952C19.5841 6.8781 19.5601 6.70839 19.5096 6.54383C19.4564 6.32955 19.3836 6.12813 19.2679 5.95499C19.0904 5.69015 18.8822 5.51272 18.6619 5.36873C18.5882 5.31559 18.5136 5.26588 18.4339 5.22302C18.4227 5.21788 18.4116 5.21273 18.4005 5.20759C18.1939 5.10131 17.9736 5.02246 17.7388 4.99931C17.6265 4.98817 17.5082 4.98903 17.3925 4.98474C17.3848 4.98474 17.3771 4.98474 17.3694 4.98389C17.2065 4.97874 17.0437 4.97446 16.8757 4.97874C16.8062 4.98046 16.736 4.98217 16.6665 4.98474C16.2268 5.00017 15.7863 5.01646 15.3611 5.0036C15.284 5.00017 15.206 5.00188 15.1306 4.99417C14.978 2.7674 13.4335 0.784899 11.2702 0.193493C10.3265 -0.0644976 9.29194 -0.0644976 8.34741 0.193493C6.18406 0.784899 4.63954 2.7674 4.48698 4.99417C4.41155 5.00188 4.3327 5.00017 4.25641 5.0036C3.83129 5.01646 3.38988 5.00017 2.95103 4.98474C2.88075 4.98217 2.81133 4.98046 2.7419 4.97874C2.57391 4.97531 2.41105 4.97874 2.2482 4.98389C2.24049 4.98389 2.23278 4.98389 2.22506 4.98474C2.10935 4.98903 1.99021 4.98731 1.87879 4.99931C1.64394 5.02246 1.42366 5.10131 1.2171 5.20759C1.20596 5.21273 1.19481 5.21788 1.18367 5.22302C1.10396 5.26588 1.02939 5.31559 0.95568 5.36959C0.735402 5.51272 0.527124 5.69015 0.350559 5.95499C0.234849 6.12813 0.161138 6.32955 0.108854 6.54383C0.0582847 6.70925 0.0334284 6.88067 0.0257144 7.05295C-0.0565682 8.29233 0.959108 15.8203 1.37309 18.1063C1.5308 18.9797 2.03393 19.6036 2.83275 19.8728C3.01875 19.9353 3.21502 19.9585 3.4113 19.9525C5.23009 19.8976 14.2846 19.9302 16.1934 19.9979C16.4274 20.0065 16.6614 19.9705 16.8791 19.8839C17.6248 19.5891 18.0953 18.9462 18.2479 18.1063C18.6619 15.8203 19.6784 8.28976 19.5953 7.04952H19.5927ZM11.6199 14.2313C10.8896 14.8947 10.821 16.3577 9.57479 16.1452C8.86939 16.0252 8.61311 14.8852 8.16313 14.389C7.65914 13.8327 6.50033 13.5739 6.27662 12.9276C5.86093 11.7251 7.3643 11.5082 8.00456 10.9254C8.56854 10.4128 8.85139 9.13402 9.57393 9.01145C10.767 8.80832 10.8613 10.0931 11.4604 10.7677C12.039 11.4182 13.3932 11.5854 13.4095 12.5633C13.4249 13.5241 12.2018 13.7016 11.619 14.2313H11.6199ZM5.99635 4.99846C5.98435 4.99846 6.08806 4.40876 6.10092 4.35477C6.15234 4.1482 6.22177 3.94507 6.30662 3.74965C6.47119 3.37252 6.69832 3.02367 6.97517 2.7194C7.51772 2.12285 8.24627 1.70544 9.03481 1.53659C9.9922 1.33174 11.0053 1.5263 11.8324 2.044C12.5378 2.48626 13.0907 3.15395 13.3846 3.93392C13.5132 4.27505 13.5912 4.63504 13.6204 4.99846H5.99635Z" fill="#CECECE"/>
</svg>
