<svg width="45" height="44" viewBox="0 0 45 44" fill="none" xmlns="http://www.w3.org/2000/svg">
<path fill-rule="evenodd" clip-rule="evenodd" d="M20.824 13.9468C19.7723 10.7959 18.9163 9.94107 15.7614 8.89078H15.7858C14.4162 8.4267 14.4162 6.54596 15.7858 6.08188C18.9408 5.0316 19.7968 4.17671 20.8485 1.02586C21.3131 -0.341953 23.1963 -0.341953 23.661 1.02586C24.7127 4.17671 25.5687 5.0316 28.7237 6.08188C30.0933 6.54596 30.0933 8.4267 28.7237 8.89078C25.5687 9.94107 24.7127 10.7959 23.661 13.9468C23.4165 14.6307 22.8539 14.9727 22.2425 14.9727C21.6311 14.9727 21.0441 14.6307 20.824 13.9468ZM30.9735 26.0374C31.0225 26.2817 31.1203 26.5015 31.2426 26.6969L31.2181 26.7213C32.0251 28.1134 32.8321 29.481 33.6391 30.8486L33.6394 30.8492C34.2753 31.9239 34.2753 33.1207 34.153 34.3176C34.0647 35.1108 33.6779 35.7848 33.2978 36.4471L33.2971 36.4483C33.2561 36.5197 33.2152 36.5911 33.1747 36.6624C32.1964 38.3721 31.2181 40.0575 30.2154 41.7673C30.0931 41.9871 29.9463 42.2069 29.7996 42.4023C28.4545 44.1365 25.9354 44.454 24.0277 43.3793C20.2613 41.3032 12.6307 37.0532 12.6307 37.0532C10.5763 35.9052 9.54905 33.3405 10.5273 31.1911V31.1423C10.8951 30.341 11.3314 29.5739 11.7659 28.8099L11.7659 28.8099L11.766 28.8097C11.9672 28.4559 12.1681 28.1028 12.3616 27.7472C12.9486 26.7213 13.5111 25.6955 14.0736 24.6697L14.0736 24.6696V24.6452L13.7433 24.4083L13.7433 24.4083C13.0772 23.931 12.4291 23.4666 11.7991 22.9843C11.579 22.8133 11.3573 22.6438 11.1357 22.4744C10.4708 21.966 9.80585 21.4577 9.1822 20.9081C8.79088 20.5662 8.44848 20.1265 8.17945 19.6624C7.49465 18.5389 7.73922 17.4153 8.57077 16.4627C8.98654 15.9498 9.5246 15.559 10.2094 15.4613C10.7719 15.388 11.31 15.4857 11.7991 15.73C12.6307 16.1452 13.4377 16.6093 14.2448 17.0733C15.0854 17.553 15.9167 18.0419 16.7445 18.5287C17.2655 18.8351 17.7851 19.1407 18.3047 19.4426C19.296 20.0426 20.2964 20.6333 21.3005 21.2262L21.3006 21.2263L21.3008 21.2264C21.9317 21.5989 22.5639 21.9722 23.1962 22.3492C23.2155 22.3588 23.2309 22.3723 23.2456 22.385C23.2682 22.4046 23.2888 22.4225 23.3184 22.4225C23.9543 22.7644 24.15 22.6912 24.4924 22.0317C24.8103 21.421 25.006 20.7616 25.1038 20.1021C25.275 19.1251 25.5196 18.1969 26.1555 17.3909C27.1338 16.1452 28.3322 15.2415 29.8974 14.8507C30.5578 14.6797 31.2181 14.582 31.9029 14.7529C33.3704 15.1438 34.0552 16.3894 33.3214 17.7817C33.0769 18.2213 32.7834 18.6366 32.4899 19.0518L32.4324 19.1307C31.865 19.9091 31.3088 20.6721 31.0958 21.6409C30.7779 23.1064 30.6067 24.5719 30.9735 26.0374ZM43.6914 12.7501L41.8571 11.8952L42.7131 10.0633C43.031 9.355 42.7131 8.52454 42.0283 8.20701C41.319 7.88948 40.4875 8.20701 40.1695 8.89092L39.3135 10.7228L37.4793 9.86793C36.77 9.5504 35.9385 9.86793 35.6205 10.5518C35.3026 11.2602 35.6205 12.0906 36.3053 12.4081L38.1396 13.263L37.2836 15.0949C36.9657 15.8033 37.2836 16.6337 37.9684 16.9512C38.6777 17.2688 39.5092 16.9512 39.8271 16.2673L40.6831 14.4354L42.5174 15.2903C43.2267 15.6079 44.0582 15.2903 44.3762 14.6064C44.6941 13.8981 44.3762 13.0676 43.6914 12.7501ZM5.78277 24.4742C5.97842 24.5963 6.17408 24.7184 6.90778 25.0848H6.93224C7.56813 25.4023 7.56813 26.3305 6.93224 26.648C6.76351 26.7352 6.62246 26.8071 6.50284 26.8682C6.11964 27.0636 5.95632 27.147 5.80721 27.2586C5.61155 27.4052 5.48927 27.5029 5.36698 27.6983C5.24469 27.8937 5.12241 28.0891 4.75555 28.8219C4.41315 29.5302 3.41041 29.4569 3.16583 28.7242C3.11978 28.6168 3.08336 28.5191 3.05053 28.4311C3.03105 28.3788 3.01284 28.33 2.99463 28.2845C2.77452 27.7472 2.62778 27.5273 2.23646 27.2831C1.99189 27.1365 1.74732 27.0144 0.989144 26.648C0.6712 26.5015 0.5 26.1839 0.5 25.8664C0.5 25.5489 0.6712 25.2558 0.989144 25.0848C1.15786 24.9977 1.2989 24.9257 1.41851 24.8647C1.80174 24.6692 1.96506 24.5859 2.11417 24.4742C2.30983 24.3276 2.43212 24.2299 2.5544 24.0345C2.67669 23.8391 2.79898 23.6437 3.16583 22.911C3.48378 22.2759 4.41315 22.2759 4.73109 22.911C4.81837 23.0795 4.89041 23.2203 4.95152 23.3398C5.14726 23.7225 5.23069 23.8856 5.34252 24.0345C5.48927 24.2299 5.58709 24.352 5.78275 24.4742L5.78277 24.4742Z" fill="url(#paint0_linear_170_4033)"/>
<defs>
<linearGradient id="paint0_linear_170_4033" x1="49.7025" y1="-9.79645" x2="-2.27782" y2="-0.125135" gradientUnits="userSpaceOnUse">
<stop stop-color="#FF5614"/>
<stop offset="1" stop-color="#FF7700"/>
</linearGradient>
</defs>
</svg>
